<svg xmlns="http://www.w3.org/2000/svg" viewBox="0 0 42.8 25.2"><path fill="#E23A59" d="M41.7 22.3c-.1-.1-.1-.2-.1-.3-.7-1.3-2.1-2.9-4.1-4.8-.9-.9-1.5-1.5-1.7-1.8-.4-.6-.5-1.2-.3-1.7.2-.4.8-1.4 1.9-2.8.6-.8 1.1-1.4 1.4-1.8 2.5-3.3 3.6-5.4 3.2-6.3l-.1-.2c-.1-.1-.3-.2-.7-.4-.5-.2-.9-.2-1.5-.2H33.1c-.2 0-.3.1-.3.1l-.1.1-.1.1c-.1 0-.2.1-.2.2-.1.1-.2.2-.2.4-.7 1.7-1.4 3.4-2.3 4.8-.5.9-1 1.7-1.5 2.3-.4.7-.8 1.1-1.1 1.4-.3.3-.6.6-.8.7-.2.2-.4.3-.6.2-.1 0-.3-.1-.4-.1-.2-.1-.4-.3-.5-.5-.1-.2-.2-.5-.2-.8 0-.3-.1-.6-.1-.9V9v-.9-1.8c0-.6 0-1.1.1-1.5V3.6c0-.4 0-.7-.1-1 0-.2-.1-.5-.2-.7-.1-.2-.2-.4-.4-.5-.2-.1-.4-.2-.7-.3-.8 0-1.8-.1-2.9-.1-2.7 0-4.4.1-5.1.5-.3.2-.6.4-.8.6-.3.3-.3.5-.1.5.9.1 1.5.4 1.8.9l.1.3c.1.2.2.5.3 1 .1.5.2 1 .2 1.6.1 1 .1 1.9 0 2.7-.1.7-.1 1.3-.2 1.7-.1.4-.2.8-.3 1-.1.3-.2.4-.3.5 0 .1-.1.1-.1.1-.2.1-.4.1-.6.1-.2 0-.4-.1-.7-.3-.3-.2-.6-.5-.9-.8-.3-.4-.7-.8-1-1.5-.4-.6-.8-1.4-1.2-2.2l-.3-.6-.9-1.8c-.4-.8-.7-1.5-1-2.2-.2-.3-.4-.6-.6-.7l-.1-.1c-.1 0-.2-.1-.4-.2-.1 0-.3-.1-.5-.1H1.9c-.6 0-1 .1-1.2.4l-.1.2c0 .1-.1.2-.1.3 0 .2 0 .4.1.6.9 2 1.8 4 2.8 5.9s1.9 3.4 2.6 4.5c.7 1.1 1.5 2.2 2.3 3.3.8 1 1.3 1.7 1.5 2 .3.3.4.5.6.6l.5.5c.3.3.9.8 1.5 1.2.7.5 1.4 1 2.2 1.4.8.5 1.8.8 2.8 1.1 1.1.3 2.1.4 3.1.4H23c.5 0 .9-.2 1.1-.5l.1-.1c.1-.1.1-.2.2-.4s.1-.4.1-.6c0-.6 0-1.2.1-1.7s.2-.9.4-1.1c.1-.3.3-.5.5-.6.2-.2.3-.3.4-.3.1 0 .1-.1.2-.1.3-.1.8 0 1.2.3.5.3.9.8 1.3 1.2.4.5.9 1.1 1.5 1.7.6.6 1.1 1.1 1.5 1.4l.4.3c.3.2.7.3 1.1.5.5.1.9.2 1.2.1l5.5-.1c.5 0 1-.1 1.3-.3.3-.2.5-.4.5-.6.1-.2.1-.5 0-.7.2-.2.2-.4.1-.5z"/></svg>