<svg xmlns="http://www.w3.org/2000/svg" viewBox="0 0 187.5 140"><path fill="#272961" d="M105.1 138.2v-8.6c25.6-14.7 41.5-33.4 47.5-56.1-6.5 4.2-12.4 6.3-17.7 6.3-8.9 0-16.4-3.6-22.5-10.8-6.1-7.2-9.2-15.9-9.2-26.3 0-11.5 4-21.1 12-28.9 8-7.8 17.9-11.7 29.6-11.7 11.7 0 21.5 4.9 29.4 14.8 7.9 9.9 11.8 22.2 11.8 36.9 0 20.8-7.9 39.3-23.8 55.8-15.8 16.7-34.9 26.2-57.1 28.6zm-100.9 0v-8.6c25.6-14.7 41.5-33.4 47.5-56.1-6.5 4.2-12.5 6.3-17.9 6.3-8.8 0-16.2-3.6-22.3-10.8-6.1-7.2-9.2-15.9-9.2-26.3 0-11.5 4-21.1 12-28.9C22.3 6 32.1 2.1 43.9 2.1S65.6 7 73.4 16.9c7.8 9.9 11.8 22.2 11.8 36.9 0 20.8-7.9 39.3-23.7 55.8-16 16.7-35 26.2-57.3 28.6z"/></svg>