<svg xmlns="http://www.w3.org/2000/svg" viewBox="0 0 60.2 60.4"><g fill="#FFF"><path d="M55.2 5.5H47V1.8c0-1-.8-1.8-1.9-1.8-1 0-1.9.8-1.9 1.8v3.6H32V1.8c0-1-.8-1.8-1.9-1.8-1 0-1.9.8-1.9 1.8v3.6H16.9V1.8c0-1-.8-1.8-1.9-1.8-1 0-1.9.8-1.9 1.8v3.6H5c-2.8 0-5 2.2-5 4.9v43.1c0 2.7 2.2 4.9 5 4.9h50.2c2.8 0 5-2.2 5-4.9V10.3c0-2.7-2.3-4.8-5-4.8zm1.2 47.9c0 .7-.6 1.2-1.3 1.2H5c-.7 0-1.3-.5-1.3-1.2V10.3c0-.7.6-1.2 1.3-1.2h8.2v3.6c0 1 .8 1.8 1.9 1.8 1 0 1.9-.8 1.9-1.8V9.1h11.3v3.6c0 1 .8 1.8 1.9 1.8 1 0 1.9-.8 1.9-1.8V9.1h11.3v3.6c0 1 .8 1.8 1.9 1.8 1 0 1.9-.8 1.9-1.8V9.1h8.2c.7 0 1.3.5 1.3 1.2v43.1z"/><path d="M13.2 21.8h7.5v5.5h-7.5zM13.2 30.9h7.5v5.5h-7.5zM13.2 40h7.5v5.5h-7.5zM26.3 40h7.5v5.5h-7.5zM26.3 30.9h7.5v5.5h-7.5zM26.3 21.8h7.5v5.5h-7.5zM39.5 40H47v5.5h-7.5zM39.5 30.9H47v5.5h-7.5zM39.5 21.8H47v5.5h-7.5z"/></g></svg>