<svg xmlns="http://www.w3.org/2000/svg" viewBox="0 0 187.5 140"><path fill="#E23A59" d="M82.9 2.3v8.5C57.4 25.5 41.7 44 35.8 66.6c6.5-4.2 12.3-6.3 17.6-6.3 8.8 0 16.3 3.6 22.3 10.7 6.1 7.1 9.1 15.8 9.1 26.1 0 11.4-4 21-12 28.7-8 7.7-17.8 11.6-29.5 11.6s-21.4-4.9-29.2-14.8c-7.8-9.8-11.8-22.1-11.8-36.7 0-20.6 7.9-39.1 23.7-55.5C41.8 14.1 60.8 4.7 82.9 2.3zm100.3 0v8.5C157.7 25.5 142 44 136 66.6c6.5-4.2 12.4-6.3 17.8-6.3 8.7 0 16.1 3.6 22.2 10.7 6.1 7.1 9.1 15.8 9.1 26.1 0 11.4-4 21-11.9 28.7-7.9 7.7-17.7 11.6-29.4 11.6-11.8 0-21.5-4.9-29.3-14.8-7.8-9.8-11.7-22.1-11.7-36.7 0-20.6 7.9-39.1 23.6-55.5C142.1 14.1 161 4.7 183.2 2.3z"/></svg>