<svg xmlns="http://www.w3.org/2000/svg" viewBox="0 0 41.7 25.9"><path fill="#ffffff" d="M0 0h41.7v2.4H0zM0 23.5h41.7v2.4H0z"/><g fill="#ffffff"><path d="M9.2 16.5v-3.8c0-.6-.1-1.1-.2-1.4-.1-.3-.4-.4-.7-.4-.3 0-.6.1-.8.3s-.4.4-.5.7v4.6H5.2v-7h1.4l.2.9h.1c.2-.3.5-.6.8-.8.3-.1.8-.2 1.3-.2.4 0 .8.1 1.1.3.3.2.5.5.7.9.2-.4.5-.6.8-.9.3-.2.7-.3 1.2-.3.4 0 .7 0 1 .1.3.1.5.3.7.5.2.2.3.5.4.9.1.4.1.9.1 1.4v4.2h-1.8v-3.9c0-.5-.1-1-.2-1.2-.1-.3-.4-.4-.8-.4-.3 0-.6.1-.8.3-.2.2-.3.4-.4.7v4.5H9.2zM21.9 15.9c-.3.2-.7.4-1.1.6-.5.2-1 .2-1.5.2-1.1 0-1.9-.3-2.5-1-.5-.7-.8-1.6-.8-2.7 0-1.2.3-2.1.9-2.7.6-.6 1.4-.9 2.5-.9.4 0 .7 0 1 .1s.6.2.9.5c.3.2.5.5.6.9.2.4.2.8.2 1.3v.6c0 .2-.1.5-.1.7h-4.1c0 .6.2 1 .4 1.3.3.3.7.4 1.3.4.4 0 .7-.1 1-.2.3-.1.5-.2.7-.4l.6 1.3zm-2.6-5.1c-.5 0-.8.1-1 .4-.2.3-.4.7-.4 1.1h2.6c0-.5 0-.9-.2-1.1s-.6-.4-1-.4zM27.6 16.5v-3.9c0-.6-.1-1-.2-1.2-.2-.2-.4-.4-.8-.4-.3 0-.6.1-.9.3-.2.2-.4.4-.5.7v4.5h-1.8v-7h1.4l.2.9h.1c.2-.3.5-.6.8-.8s.8-.3 1.4-.3c.3 0 .6 0 .9.1.3.1.5.2.7.5s.3.5.4.9c.1.4.1.8.1 1.3v4.3h-1.8zM32.7 9.5v3.9c0 .6.1 1 .2 1.2.1.2.4.4.8.4.3 0 .6-.1.9-.3.2-.2.4-.5.5-.7V9.5h1.8v4.8c0 .4 0 .8.1 1.1 0 .4.1.7.2 1h-1.4l-.3-1h-.1c-.2.4-.5.6-.9.9-.4.2-.8.3-1.3.3-.4 0-.7 0-.9-.1-.3-.1-.5-.2-.7-.5-.2-.2-.3-.5-.4-.9-.1-.4-.1-.8-.1-1.4V9.5h1.6z"/></g><path fill="#ffffff" d="M0 12.6h4v2.2H0zM37.7 12.4h4v2.2h-4z"/></svg>