<svg xmlns="http://www.w3.org/2000/svg" viewBox="0 0 68 60.4"><g fill-rule="evenodd" clip-rule="evenodd" fill="#FFF"><path d="M42.7 2.1C49 2.1 54 6.9 54 12.9c0 5.9-5 10.8-11.2 10.8-6.1 0-11.1-4.8-11.1-10.8-.1-6 4.9-10.8 11-10.8zM66.7 55.3l-2.8-8.4c-3.5-10.7-9.5-20.4-21.2-20.4-7.2 0-12.2 3.8-15.8 9.2 4.9 2.6 7.9 8.1 9.9 14l2.1 6.4c.4 1.1-1.1 2-2.2 2h27c1.7 0 3.4-1.3 3-2.8z"/><path d="M19.5 34.2c8.9 0 13.4 7.4 16.1 15.5l2.1 6.5c.4 1.1-1.1 2.1-2.2 2.1h-32c-1.2 0-2.5-1-2.2-2.1l2.1-6.5c2.8-8.1 7.3-15.5 16.1-15.5zM19.5 15.6c4.7 0 8.6 3.7 8.6 8.2 0 4.5-3.9 8.2-8.6 8.2-4.6 0-8.5-3.7-8.5-8.2 0-4.5 3.9-8.2 8.5-8.2z"/></g></svg>