<svg xmlns="http://www.w3.org/2000/svg" viewBox="0 0 29.8 23"><path fill="#FFF" d="M22 22.7c-.8 0-1.6-.1-2.4-.4-5-1.3-9.1-4.3-12.7-9.1-1.2-1.6-2.4-3.3-2.8-5.5-.5-2.6.2-4.8 2.2-6.6C7 .4 9 .1 9.9.6c.3.2.6.4.8.8.5 1.1 1 2.3 1.5 3.4l.5 1.2c.3.6 0 1.1-.1 1.3-.3.8-.9 1.3-1.4 2l-.1.1c-.2.2-.3.4 0 .7 1.8 3 4.4 5.1 7.5 6.4.4.1.5.1.6-.1l.3-.4c.4-.5.9-1.1 1.3-1.7.5-.7 1.1-.8 1.9-.5 1 .4 1.9.8 2.8 1.3l1.2.6c1.3.7 1.4.8 1.3 2.2-.2 2.4-1.7 4-4.5 4.7-.4.1-.9.1-1.5.1zM8.7 1.4c-.7 0-1.5.2-1.8.5-1.6 1.5-2.2 3.4-1.8 5.6.4 2 1.5 3.6 2.6 5.1 3.4 4.6 7.4 7.4 12.1 8.8.8.2 1.5.3 2.2.3.5 0 .9 0 1.3-.1 2.4-.7 3.6-1.9 3.8-3.8.1-.9.1-.9-.8-1.3l-1.2-.5c-.9-.4-1.9-.9-2.8-1.3-.3-.1-.5-.1-.7.2-.4.6-.9 1.1-1.3 1.7l-.3.4c-.5.6-1.1.7-1.8.4-3.4-1.3-6.1-3.6-8-6.8-.4-.7-.4-1.3.2-1.9l.1-.1c.5-.6 1-1.1 1.2-1.7.1-.3.1-.4.1-.5l-.5-1.2c-.5-1.1-1-2.3-1.5-3.4-.2-.2-.3-.3-.4-.3-.2-.1-.4-.1-.7-.1z"/></svg>