<svg xmlns="http://www.w3.org/2000/svg" viewBox="0 0 37 33.5"><path fill-rule="evenodd" clip-rule="evenodd" fill="#323961" d="M27.4 33.5c-1.2 0-2.4-.2-3.6-.6-8-2.3-14-7.3-18.8-13.9-1.8-2.5-3.5-5-4.1-8.1-.6-3.7.5-6.8 3.2-9.3C5 .8 7.7.4 8.7.9c.4.2.6.5.8.9 1 2.4 2 4.8 3 7.1.2.4.1.9-.1 1.4-.5 1.1-1.3 2-2.2 2.9-.6.6-.6 1.2-.2 2 2.8 4.7 6.7 8.1 11.8 10.1.8.3 1.4.2 1.9-.4.9-1.1 1.8-2.1 2.6-3.2.6-.7 1.2-.8 2-.5 1.7.7 3.4 1.6 5.1 2.4.4.2.7.3 1.1.5 1.7.9 1.7.9 1.5 2.8-.3 3.6-3 5.5-6.3 6.4-.8.2-1.5.2-2.3.2z"/></svg>