<svg id="Слой_1" xmlns="http://www.w3.org/2000/svg" viewBox="0 0 50 50"><style>.st0{fill:#FFF}</style><path id="XMLID_6_" class="st0" d="M24.9 2.5c-12.7 0-23 10.3-23 23.1 0 12.7 10.3 23.1 23 23.1s23-10.3 23-23.1c-.1-12.7-10.3-23.1-23-23.1zM14 22.2c0-1.8 1.3-3.1 2.9-3.1 1.6 0 2.9 1.3 2.9 3.1s-1.3 3.2-2.9 3.2c-1.6 0-2.9-1.5-2.9-3.2zm20.7 12s-2 6.6-10.1 6.6-9.6-6.6-9.6-6.6c-.1-.3.1-.5.4-.5h19c.2 0 .4.3.3.5zm-1.8-8.8c-1.6 0-2.9-1.4-2.9-3.2 0-1.8 1.3-3.1 2.9-3.1 1.6 0 2.9 1.3 2.9 3.1 0 1.7-1.3 3.2-2.9 3.2z"/></svg>