<?xml version="1.0" encoding="utf-8"?>
<!-- Generator: Adobe Illustrator 19.0.0, SVG Export Plug-In . SVG Version: 6.00 Build 0)  -->
<svg version="1.1" id="Слой_1" xmlns="http://www.w3.org/2000/svg" xmlns:xlink="http://www.w3.org/1999/xlink" x="0px" y="0px"
	 viewBox="0 0 42.6 28" enable-background="new 0 0 42.6 28" xml:space="preserve">
<g id="XMLID_212_">
	<g id="XMLID_322_">
		<path id="XMLID_327_" fill="#323969" d="M41.2,23.6c-0.1-0.1-0.1-0.2-0.1-0.3c-0.7-1.3-2.1-2.9-4.1-4.8l0,0l0,0l0,0h0
			c-0.9-0.9-1.5-1.5-1.7-1.8c-0.4-0.6-0.5-1.2-0.3-1.7c0.2-0.4,0.8-1.4,1.9-2.8c0.6-0.8,1.1-1.4,1.4-1.8C40.6,7,41.7,4.9,41.3,4
			l-0.1-0.2c-0.1-0.1-0.3-0.2-0.7-0.4c-0.4-0.1-0.8-0.1-1.4-0.1l-6.2,0c-0.1,0-0.2,0-0.4,0c-0.2,0-0.3,0.1-0.3,0.1l-0.1,0.1L32,3.6
			c-0.1,0-0.2,0.1-0.2,0.2c-0.1,0.1-0.2,0.2-0.2,0.4c-0.7,1.7-1.4,3.4-2.3,4.8c-0.5,0.9-1,1.7-1.5,2.3c-0.4,0.7-0.8,1.1-1.1,1.4
			c-0.3,0.3-0.6,0.6-0.8,0.7c-0.2,0.2-0.4,0.3-0.6,0.2c-0.1,0-0.3-0.1-0.4-0.1c-0.2-0.1-0.4-0.3-0.5-0.5c-0.1-0.2-0.2-0.5-0.2-0.8
			c0-0.3-0.1-0.6-0.1-0.9c0-0.2,0-0.6,0-1c0-0.4,0-0.7,0-0.9c0-0.5,0-1.1,0-1.8c0-0.6,0-1.1,0.1-1.5c0-0.4,0-0.8,0-1.2s0-0.7-0.1-1
			c0-0.2-0.1-0.5-0.2-0.7c-0.1-0.2-0.2-0.4-0.4-0.5c-0.2-0.1-0.4-0.2-0.7-0.3c-0.8-0.2-1.7-0.3-2.9-0.3c-2.7,0-4.4,0.1-5.1,0.5
			c-0.3,0.2-0.6,0.4-0.8,0.6c-0.3,0.3-0.3,0.5-0.1,0.5c0.9,0.1,1.5,0.4,1.8,0.9l0.1,0.3c0.1,0.2,0.2,0.5,0.3,1
			c0.1,0.5,0.2,1,0.2,1.6c0.1,1,0.1,1.9,0,2.7c-0.1,0.7-0.1,1.3-0.2,1.7c-0.1,0.4-0.2,0.8-0.3,1c-0.1,0.3-0.2,0.4-0.3,0.5
			c0,0.1-0.1,0.1-0.1,0.1c-0.2,0.1-0.4,0.1-0.6,0.1c-0.2,0-0.4-0.1-0.7-0.3c-0.3-0.2-0.6-0.5-0.9-0.8c-0.3-0.4-0.7-0.8-1-1.5
			C11.8,10.6,11.4,9.9,11,9l-0.3-0.6c-0.2-0.4-0.5-1-0.9-1.8C9.4,5.8,9,5.1,8.7,4.4C8.6,4.1,8.5,3.8,8.2,3.7L8.1,3.6
			C8.1,3.6,7.9,3.5,7.8,3.4C7.6,3.4,7.5,3.3,7.3,3.3l-5.9,0c-0.6,0-1,0.1-1.2,0.4L0.1,3.9C0,4,0,4.1,0,4.2c0,0.2,0,0.4,0.1,0.6
			c0.9,2,1.8,4,2.8,5.9c1,1.9,1.9,3.4,2.6,4.5c0.7,1.1,1.5,2.2,2.3,3.3c0.8,1,1.3,1.7,1.5,2c0.3,0.3,0.4,0.5,0.6,0.6l0.5,0.5
			c0.3,0.3,0.9,0.8,1.5,1.2c0.7,0.5,1.4,1,2.2,1.4c0.8,0.5,1.8,0.8,2.8,1.1c1.1,0.3,2.1,0.4,3.1,0.4h2.5c0.5,0,0.9-0.2,1.1-0.5
			l0.1-0.1c0.1-0.1,0.1-0.2,0.2-0.4c0.1-0.2,0.1-0.4,0.1-0.6c0-0.6,0-1.2,0.1-1.7c0.1-0.5,0.2-0.9,0.4-1.1c0.1-0.3,0.3-0.5,0.5-0.6
			c0.2-0.2,0.3-0.3,0.4-0.3c0.1,0,0.1-0.1,0.2-0.1c0.3-0.1,0.8,0,1.2,0.3c0.5,0.3,0.9,0.8,1.3,1.2c0.4,0.5,0.9,1.1,1.5,1.7
			c0.6,0.6,1.1,1.1,1.5,1.4l0.4,0.3c0.3,0.2,0.7,0.3,1.1,0.5c0.5,0.1,0.9,0.2,1.2,0.1l5.5-0.1c0.5,0,1-0.1,1.3-0.3
			c0.3-0.2,0.5-0.4,0.5-0.6c0.1-0.2,0.1-0.5,0-0.7C41.3,23.9,41.2,23.7,41.2,23.6z"/>
	</g>
</g>
</svg>
