<svg id="Слой_1" xmlns="http://www.w3.org/2000/svg" viewBox="-54 42.1 29.8 18.9"><style>.st0{fill:#FFF}</style><path class="st0" d="M-25 58.1c0-.1-.1-.1-.1-.2-.5-.9-1.5-2-2.9-3.3-.6-.6-1.1-1-1.2-1.2-.3-.4-.4-.8-.2-1.2.1-.3.6-1 1.4-2 .4-.5.7-1 1-1.3 1.7-2.3 2.5-3.8 2.3-4.4l-.1-.2c-.1-.1-.2-.2-.5-.2-.3-.1-.6-.1-1 0H-31.3c-.1 0-.1.1-.2.2s-.1.2-.2.3c-.5 1.2-1 2.3-1.6 3.4-.4.6-.7 1.2-1 1.6-.3.5-.6.8-.8 1-.2.2-.4.4-.6.5-.2.1-.3.2-.4.2-.1 0-.2 0-.3-.1-.1-.1-.3-.2-.3-.4-.1-.2-.1-.4-.2-.6 0-.2 0-.4-.1-.6v-.7-.6-1.2V46v-.8c0-.3 0-.5-.1-.7 0-.2-.1-.3-.2-.5s-.2-.3-.3-.4c-.1-.1-.3-.2-.5-.2-.5-.1-1.2-.2-2-.2-1.9 0-3.1.1-3.6.4-.2.1-.4.3-.6.5-.2.2-.2.3-.1.4.6.1 1 .3 1.3.6l.1.2c.1.1.1.4.2.7.1.3.1.7.1 1.1.1.7.1 1.4 0 1.9s-.1.9-.1 1.2c0 .3-.1.5-.2.7-.1.2-.2.3-.2.3l-.1.1c-.1.1-.3.1-.4.1-.1 0-.3-.1-.5-.2s-.4-.3-.6-.6c-.2-.2-.5-.6-.7-1-.3-.4-.6-1-.8-1.6l-.2-.4c-.2-.3-.4-.7-.6-1.2-.3-.5-.5-1.1-.7-1.6-.1-.2-.2-.4-.4-.5h-.1c-.1 0-.1-.1-.2-.1s-.2-.1-.3-.1h-4.1c-.4 0-.7.1-.9.3l-.1.1v.2c0 .1 0 .2.1.4.6 1.4 1.3 2.8 2 4.1.7 1.3 1.3 2.4 1.8 3.2.5.8 1.1 1.6 1.6 2.3.5.7.9 1.2 1.1 1.4.2.2.3.4.4.5l.4.4c.2.2.6.5 1.1.9.5.3 1 .7 1.6 1 .6.3 1.2.6 2 .8.8.2 1.5.3 2.2.2h1.7c.4 0 .6-.1.8-.3l.1-.1c0-.1.1-.2.1-.3 0-.1.1-.3.1-.4 0-.4 0-.8.1-1.2.1-.3.2-.6.3-.8.1-.2.2-.3.3-.4.1-.1.2-.2.3-.2.1 0 .1 0 .1-.1.2-.1.5 0 .9.2.3.2.6.5.9.9.3.3.6.7 1 1.2.4.4.8.8 1.1 1l.3.2c.2.1.5.2.8.3.3.1.6.1.8.1l3.9-.1c.4 0 .7-.1.9-.2.2-.1.3-.3.4-.4v-.5c-.2-.5-.3-.6-.3-.7z"/></svg>