<?xml version="1.0" encoding="utf-8"?>
<!-- Generator: Adobe Illustrator 19.0.0, SVG Export Plug-In . SVG Version: 6.00 Build 0)  -->
<svg version="1.1" id="Слой_1" xmlns="http://www.w3.org/2000/svg" xmlns:xlink="http://www.w3.org/1999/xlink" x="0px" y="0px"
	 viewBox="-54 42.1 29.8 18.9" style="enable-background:new -54 42.1 29.8 18.9;" xml:space="preserve">
<style type="text/css">
	.st0{fill:#FFFFFF;}
</style>
<g>
	<path class="st0" d="M-25,58.1c0-0.1-0.1-0.1-0.1-0.2c-0.5-0.9-1.5-2-2.9-3.3l0,0l0,0l0,0h0c-0.6-0.6-1.1-1-1.2-1.2
		c-0.3-0.4-0.4-0.8-0.2-1.2c0.1-0.3,0.6-1,1.4-2c0.4-0.5,0.7-1,1-1.3c1.7-2.3,2.5-3.8,2.3-4.4l-0.1-0.2c-0.1-0.1-0.2-0.2-0.5-0.2
		c-0.3-0.1-0.6-0.1-1,0l-4.3,0c-0.1,0-0.2,0-0.3,0c-0.1,0-0.2,0-0.2,0l-0.1,0l-0.1,0c-0.1,0-0.1,0.1-0.2,0.2
		c-0.1,0.1-0.1,0.2-0.2,0.3c-0.5,1.2-1,2.3-1.6,3.4c-0.4,0.6-0.7,1.2-1,1.6c-0.3,0.5-0.6,0.8-0.8,1c-0.2,0.2-0.4,0.4-0.6,0.5
		c-0.2,0.1-0.3,0.2-0.4,0.2c-0.1,0-0.2,0-0.3-0.1c-0.1-0.1-0.3-0.2-0.3-0.4c-0.1-0.2-0.1-0.4-0.2-0.6c0-0.2,0-0.4-0.1-0.6
		c0-0.2,0-0.4,0-0.7c0-0.3,0-0.5,0-0.6c0-0.4,0-0.8,0-1.2c0-0.4,0-0.8,0-1.1c0-0.3,0-0.5,0-0.8s0-0.5-0.1-0.7c0-0.2-0.1-0.3-0.2-0.5
		c-0.1-0.2-0.2-0.3-0.3-0.4c-0.1-0.1-0.3-0.2-0.5-0.2c-0.5-0.1-1.2-0.2-2-0.2c-1.9,0-3.1,0.1-3.6,0.4c-0.2,0.1-0.4,0.3-0.6,0.5
		c-0.2,0.2-0.2,0.3-0.1,0.4c0.6,0.1,1,0.3,1.3,0.6l0.1,0.2c0.1,0.1,0.1,0.4,0.2,0.7c0.1,0.3,0.1,0.7,0.1,1.1c0.1,0.7,0.1,1.4,0,1.9
		c-0.1,0.5-0.1,0.9-0.1,1.2c0,0.3-0.1,0.5-0.2,0.7c-0.1,0.2-0.2,0.3-0.2,0.3c0,0-0.1,0.1-0.1,0.1c-0.1,0.1-0.3,0.1-0.4,0.1
		c-0.1,0-0.3-0.1-0.5-0.2c-0.2-0.1-0.4-0.3-0.6-0.6c-0.2-0.2-0.5-0.6-0.7-1c-0.3-0.4-0.6-1-0.8-1.6l-0.2-0.4
		c-0.2-0.3-0.4-0.7-0.6-1.2c-0.3-0.5-0.5-1.1-0.7-1.6c-0.1-0.2-0.2-0.4-0.4-0.5l-0.1,0c-0.1,0-0.1-0.1-0.2-0.1
		c-0.1,0-0.2-0.1-0.3-0.1l-4.1,0c-0.4,0-0.7,0.1-0.9,0.3l-0.1,0.1c0,0.1,0,0.1,0,0.2c0,0.1,0,0.2,0.1,0.4c0.6,1.4,1.3,2.8,2,4.1
		c0.7,1.3,1.3,2.4,1.8,3.2c0.5,0.8,1.1,1.6,1.6,2.3c0.5,0.7,0.9,1.2,1.1,1.4c0.2,0.2,0.3,0.4,0.4,0.5l0.4,0.4
		c0.2,0.2,0.6,0.5,1.1,0.9c0.5,0.3,1,0.7,1.6,1c0.6,0.3,1.2,0.6,2,0.8c0.8,0.2,1.5,0.3,2.2,0.2h1.7c0.4,0,0.6-0.1,0.8-0.3l0.1-0.1
		c0-0.1,0.1-0.2,0.1-0.3c0-0.1,0.1-0.3,0.1-0.4c0-0.4,0-0.8,0.1-1.2c0.1-0.3,0.2-0.6,0.3-0.8c0.1-0.2,0.2-0.3,0.3-0.4
		c0.1-0.1,0.2-0.2,0.3-0.2c0.1,0,0.1,0,0.1-0.1c0.2-0.1,0.5,0,0.9,0.2c0.3,0.2,0.6,0.5,0.9,0.9c0.3,0.3,0.6,0.7,1,1.2
		c0.4,0.4,0.8,0.8,1.1,1l0.3,0.2c0.2,0.1,0.5,0.2,0.8,0.3c0.3,0.1,0.6,0.1,0.8,0.1l3.9-0.1c0.4,0,0.7-0.1,0.9-0.2
		c0.2-0.1,0.3-0.3,0.4-0.4c0-0.2,0-0.3,0-0.5C-24.9,58.3-25,58.2-25,58.1z"/>
</g>
</svg>
