<svg xmlns="http://www.w3.org/2000/svg" viewBox="0 0 29.8 18.9"><path fill="#FFF" d="M14.7 18.3c-.6 0-1.1-.1-1.7-.2-.7-.2-1.4-.4-2-.8-.6-.3-1.1-.6-1.5-.9-.5-.3-.8-.6-1.1-.8l-.4-.4-.4-.4c-.2-.2-.5-.6-1.1-1.3L5 11.4c-.5-.7-1.1-1.7-1.8-3-.7-1.2-1.4-2.5-2-3.8-.1-.3-.1-.4-.1-.6 0-.2 0-.4.1-.5l.1-.1c.3-.3.7-.5 1.2-.5l3.9-.1c.2 0 .4.1.5.1.1.1.2.1.3.2.3.2.5.4.6.7.2.4.4.9.6 1.4.3.5.5.8.6 1.1l.2.4c.3.6.6 1 .8 1.4.2.4.5.7.7.9l.5.5c.1.1.2.1.2.1h.1s0-.1.1-.2c0-.1.1-.2.1-.5s.1-.6.1-1.1V6.1c0-.4-.1-.7-.1-1-.1-.4-.1-.5-.2-.5l-.1-.2c-.1-.1-.4-.3-.8-.3h-.3l-.2-.3c-.2-.4.1-.7.2-.8.2-.2.4-.4.7-.6.4-.2 1.1-.4 3.6-.5.8 0 1.5 0 2 .2.3.1.5.1.6.2.2.1.4.3.5.5.1.2.2.4.2.6 0 .2.1.4.1.7V8.2c0 .1 0 .3.1.5 0 .2.1.3.1.4l.1.1h.1c.1-.1.3-.3.5-.4.1-.1.3-.4.6-.8.2-.5.5-1 .9-1.5.5-1 1-2 1.4-3.1.1-.1.1-.3.2-.4l.3-.3.3-.1h.2c.2 0 .3-.1.5 0l4-.1c.4-.1.7-.1 1.1 0 .4.1.6.2.7.4H29c.3.7.2 1.7-2 4.8-.2.3-.5.7-.9 1.2-.9 1.2-1.1 1.6-1.2 1.7-.1.2-.1.4.1.7.1.1.3.4 1 .9l.2.1c1.4 1.3 2.4 2.3 2.9 3.2 0 0 .1.1.1.2.1.1.1.3.1.5.1.3.1.5 0 .7-.1.3-.3.5-.6.7-.3.2-.6.3-1.1.3L24 18c-.2.1-.6 0-.9-.1-.3-.1-.6-.2-.8-.3l-.3-.2c-.4-.2-.7-.5-1.1-1-.4-.4-.7-.8-1-1.1-.2-.3-.5-.5-.8-.7-.2-.1-.3-.2-.3-.1-.1 0-.1.1-.2.1-.1.1-.1.2-.2.3 0 .1-.1.3-.2.6s-.1.6-.1 1c0 .2 0 .4-.1.5 0 .2-.1.3-.2.4l-.1.1c-.3.3-.6.5-1.1.5h-1.7c.1.3-.1.3-.2.3zM2.1 4s0 .1.1.2C2.7 5.5 3.3 6.7 4 7.9c.7 1.2 1.3 2.2 1.8 2.9l1.5 2.1c.5.6.8 1.1 1 1.2l.4.4.4.3c.2.2.5.5 1 .7.4.3.9.6 1.4.9.5.3 1.1.5 1.8.7.7.2 1.3.2 1.9.2h1.6c.2 0 .3-.1.4-.2V17v-.3c0-.4 0-.8.1-1.2.1-.4.2-.7.3-.9.1-.2.2-.4.4-.5.2-.2.3-.3.4-.3.1 0 .1-.1.2-.1.4-.1.8 0 1.3.3.3.2.7.5 1 .9.3.3.6.7 1 1 .4.4.7.6.9.8l.3.1c.2.1.4.2.6.2.2.1.4.1.5 0l3.7-.1c.4 0 .5-.1.6-.1l.1-.1v-.2c0-.2-.1-.2-.1-.3 0 0 0-.1-.1-.1-.5-.8-1.3-1.8-2.6-2.9l-.1-.1-1.2-1.2c-.5-.7-.5-1.3-.3-1.6.1-.2.3-.7 1.3-2 .4-.5.7-.9.9-1.2 2.1-3 2-3.7 2-3.7v-.1c.1.1 0 0-.2 0-.1 0-.3-.1-.7 0l-4.5.2h-.1l-.2.1c0 .1-.1.1-.1.2-.4 1.2-.9 2.3-1.5 3.3-.3.6-.7 1.1-.9 1.6-.3.5-.5.8-.8 1-.2.2-.4.4-.6.5-.2.1-.5.3-.8.3l-.4-.1c-.2-.1-.4-.3-.5-.5.1-.4 0-.6-.1-.9v-.6-.7-.6-2.2-.8c0-.3 0-.5-.1-.5 0-.1-.1-.2-.1-.3 0-.1-.1-.1-.1-.1-.1 0-.2-.1-.3-.1-.5-.1-1.1-.1-1.8-.1-2.2 0-2.9.2-3.1.4.3.1.6.3.8.6l.1.2c.1.2.2.4.3.8.1.3.1.7.2 1.1.1.7.1 1.3 0 1.8 0 .5-.1.9-.1 1.2 0 .3-.1.6-.2.8-.1.2-.2.3-.2.4l-.1.1H12c-.2.1-.4.1-.6.1-.2 0-.5-.1-.8-.3-.2-.1-.5-.4-.7-.6-.2-.2-.5-.6-.8-1-.2-.4-.4-.9-.7-1.4l-.2-.4c-.2-.3-.4-.7-.7-1.2-.2-.5-.5-1-.7-1.4 0-.2-.1-.2-.1-.3h-.1-.1c-.1 0-.1 0-.2-.1l-3.8.1c-.3 0-.4 0-.4.1z"/></svg>