<svg xmlns="http://www.w3.org/2000/svg" viewBox="0 0 29.8 18.9"><path fill="#FFF" d="M6.9 18.3c-1.1 0-2.1-.4-2.9-1.2-.8-.8-1.3-1.8-1.3-3l-.3-8.8c0-1.1.4-2.2 1.2-3 .8-.8 1.8-1.3 3-1.3L22.8.7c2.4 0 4.3 1.8 4.3 4.2l.2 8.9c0 2.3-1.8 4.3-4.2 4.3l-16.2.2zm16-16.7l-16.3.3c-.8.1-1.6.4-2.2 1-.6.7-1 1.5-1 2.4l.2 8.9c0 .9.4 1.7 1 2.3.6.6 1.5.9 2.3.9l16.3-.4c1.8 0 3.2-1.5 3.2-3.3l-.2-8.9c0-1.8-1.5-3.2-3.3-3.2z"/><path fill="#FFF" d="M12.4 16.7l-.3-14.4 10.1 7-9.8 7.4zm.7-12.5l.2 10.5 7.1-5.4-7.3-5.1z"/></svg>